<svg width="211" height="211" viewBox="0 0 211 211" fill="none" xmlns="http://www.w3.org/2000/svg">
<g clip-path="url(#clip0_1_2)">
<circle cx="105.5" cy="105.5" r="105.5" fill="white"/>
<path d="M38.84 116.56C38.84 122.576 40.024 127.216 42.392 130.48C44.824 133.68 48.536 135.28 53.528 135.28C55.704 135.28 57.848 135.024 59.96 134.512C62.072 134 64.6 133.104 67.544 131.824L70.328 138.928C67.192 140.336 64.216 141.36 61.4 142C58.584 142.64 55.864 142.96 53.24 142.96C45.688 142.96 39.96 140.592 36.056 135.856C32.152 131.12 30.2 124.688 30.2 116.56V102.16C30.2 94.032 32.152 87.6 36.056 82.864C39.96 78.128 45.688 75.76 53.24 75.76C55.864 75.76 58.584 76.08 61.4 76.72C64.28 77.36 67.192 78.384 70.136 79.792L67.448 86.992C62.264 84.688 57.624 83.536 53.528 83.536C48.536 83.536 44.824 85.136 42.392 88.336C40.024 91.536 38.84 96.144 38.84 102.16V116.56ZM121.909 116.848H105.589V133.648H98.3885V116.848H82.1645V109.936H98.3885V93.136H105.589V109.936H121.909V116.848ZM178.346 116.848H162.026V133.648H154.826V116.848H138.602V109.936H154.826V93.136H162.026V109.936H178.346V116.848Z" fill="black"/>
<mask id="mask0_1_2" style="mask-type:alpha" maskUnits="userSpaceOnUse" x="0" y="0" width="180" height="180">
<path fill-rule="evenodd" clip-rule="evenodd" d="M30.4968 179.694L179.694 30.4968C160.635 11.6423 134.427 0 105.5 0C47.234 0 0 47.234 0 105.5C0 134.427 11.6423 160.635 30.4968 179.694Z" fill="black"/>
</mask>
<g mask="url(#mask0_1_2)">
<rect width="211" height="183" fill="black"/>
<path d="M38.84 116.56C38.84 122.576 40.024 127.216 42.392 130.48C44.824 133.68 48.536 135.28 53.528 135.28C55.704 135.28 57.848 135.024 59.96 134.512C62.072 134 64.6 133.104 67.544 131.824L70.328 138.928C67.192 140.336 64.216 141.36 61.4 142C58.584 142.64 55.864 142.96 53.24 142.96C45.688 142.96 39.96 140.592 36.056 135.856C32.152 131.12 30.2 124.688 30.2 116.56V102.16C30.2 94.032 32.152 87.6 36.056 82.864C39.96 78.128 45.688 75.76 53.24 75.76C55.864 75.76 58.584 76.08 61.4 76.72C64.28 77.36 67.192 78.384 70.136 79.792L67.448 86.992C62.264 84.688 57.624 83.536 53.528 83.536C48.536 83.536 44.824 85.136 42.392 88.336C40.024 91.536 38.84 96.144 38.84 102.16V116.56ZM121.909 116.848H105.589V133.648H98.3885V116.848H82.1645V109.936H98.3885V93.136H105.589V109.936H121.909V116.848ZM178.346 116.848H162.026V133.648H154.826V116.848H138.602V109.936H154.826V93.136H162.026V109.936H178.346V116.848Z" fill="white"/>
</g>
</g>
<defs>
<clipPath id="clip0_1_2">
<rect width="211" height="211" fill="white"/>
</clipPath>
</defs>
</svg>
